<?xml version="1.0" encoding="UTF-8" standalone="no"?>
<svg
   class="scheme-objects-view__scheme-svg"
   viewBox="0 0 3000 3500"
   version="1.1"
   id="svg14379"
   sodipodi:docname="vectorpaint.svg"
   inkscape:version="1.1.2 (b8e25be833, 2022-02-05)"
   xmlns:inkscape="http://www.inkscape.org/namespaces/inkscape"
   xmlns:sodipodi="http://sodipodi.sourceforge.net/DTD/sodipodi-0.dtd"
   xmlns="http://www.w3.org/2000/svg"
   xmlns:svg="http://www.w3.org/2000/svg">
  <g
     class="scheme-objects-view__station"
     id="g14213">
    <circle
       x="1265"
       y="199"
       cx="1265"
       cy="199"
       r="8"
       fill="#ffffff"
       id="circle14209" />
    <circle
       x="1265"
       y="199"
       cx="1265"
       cy="199"
       r="5"
       fill="#faa400"
       id="circle14211" />
  </g>
  <g
     class="scheme-objects-view__station"
     id="g14219">
    <circle
       x="1265"
       y="249"
       cx="1265"
       cy="249"
       r="8"
       fill="#ffffff"
       id="circle14215" />
    <circle
       x="1265"
       y="249"
       cx="1265"
       cy="249"
       r="5"
       fill="#faa400"
       id="circle14217" />
  </g>
  <g
     class="scheme-objects-view__station"
     id="g14225">
    <circle
       x="1265"
       y="299"
       cx="1265"
       cy="299"
       r="8"
       fill="#ffffff"
       id="circle14221" />
    <circle
       x="1265"
       y="299"
       cx="1265"
       cy="299"
       r="5"
       fill="#faa400"
       id="circle14223" />
  </g>
  <g
     class="scheme-objects-view__station"
     id="g14231">
    <circle
       x="1265"
       y="349"
       cx="1265"
       cy="349"
       r="8"
       fill="#ffffff"
       id="circle14227" />
    <circle
       x="1265"
       y="349"
       cx="1265"
       cy="349"
       r="5"
       fill="#faa400"
       id="circle14229" />
  </g>
  <g
     class="scheme-objects-view__station"
     id="g14237">
    <circle
       x="1265"
       y="399"
       cx="1265"
       cy="399"
       r="8"
       fill="#ffffff"
       id="circle14233" />
    <circle
       x="1265"
       y="399"
       cx="1265"
       cy="399"
       r="5"
       fill="#faa400"
       id="circle14235" />
  </g>
  <g
     class="scheme-objects-view__station"
     id="g14243">
    <circle
       x="1265"
       y="449"
       cx="1265"
       cy="449"
       r="8"
       fill="#ffffff"
       id="circle14239" />
    <circle
       x="1265"
       y="449"
       cx="1265"
       cy="449"
       r="5"
       fill="#faa400"
       id="circle14241" />
  </g>
  <g
     class="scheme-objects-view__station"
     id="g14249">
    <circle
       x="1265"
       y="499"
       cx="1265"
       cy="499"
       r="8"
       fill="#ffffff"
       id="circle14245" />
    <circle
       x="1265"
       y="499"
       cx="1265"
       cy="499"
       r="5"
       fill="#faa400"
       id="circle14247" />
  </g>
  <g
     class="scheme-objects-view__station"
     id="g14255">
    <circle
       x="1265"
       y="549"
       cx="1265"
       cy="549"
       r="8"
       fill="#ffffff"
       id="circle14251" />
    <circle
       x="1265"
       y="549"
       cx="1265"
       cy="549"
       r="5"
       fill="#faa400"
       id="circle14253" />
  </g>
  <g
     class="scheme-objects-view__station"
     id="g14261">
    <circle
       x="1265"
       y="599"
       cx="1265"
       cy="599"
       r="8"
       fill="#ffffff"
       id="circle14257" />
    <circle
       x="1265"
       y="599"
       cx="1265"
       cy="599"
       r="5"
       fill="#faa400"
       id="circle14259" />
  </g>
  <g
     class="scheme-objects-view__station"
     id="g14267">
    <circle
       x="1265"
       y="648"
       cx="1265"
       cy="648"
       r="8"
       fill="#ffffff"
       id="circle14263" />
    <circle
       x="1265"
       y="648"
       cx="1265"
       cy="648"
       r="5"
       fill="#faa400"
       id="circle14265" />
  </g>
  <g
     class="scheme-objects-view__station"
     id="g14273">
    <circle
       x="1265"
       y="770"
       cx="1265"
       cy="770"
       r="7"
       fill="#ffffff"
       id="circle14269" />
    <circle
       x="1265"
       y="770"
       cx="1265"
       cy="770"
       r="5"
       fill="#faa400"
       id="circle14271" />
  </g>
  <g
     class="scheme-objects-view__station"
     id="g14279">
    <circle
       x="1265"
       y="877"
       cx="1265"
       cy="877"
       r="7"
       fill="#ffffff"
       id="circle14275" />
    <circle
       x="1265"
       y="877"
       cx="1265"
       cy="877"
       r="5"
       fill="#faa400"
       id="circle14277" />
  </g>
  <g
     class="scheme-objects-view__station"
     id="g14295">
    <circle
       x="1265"
       y="1013"
       cx="1265"
       cy="1013"
       r="6"
       fill="#333333"
       id="circle14283" />
	   
	<circle
       x="1265"
       y="1013"
       cx="1265"
       cy="1013"
       r="5"
       fill="#faa400"
       id="circle14277" />
  </g>
  <g
     class="scheme-objects-view__station"
     id="g14311">
    <circle
       x="1223"
       y="1137"
       cx="1223"
       cy="1137"
       r="6"
       fill="#333333"
       id="circle14299" />
	   	<circle
       x="1223"
       y="1137"
       cx="1223"
       cy="1137"
       r="5"
       fill="#faa400"
       id="circle14277" />
  </g>
  <g
     class="scheme-objects-view__station"
     id="g14317"
     sodipodi:insensitive="true">
    <circle
       x="1048"
       y="1312"
       cx="1048"
       cy="1312"
       r="7"
       fill="#ffffff"
       id="circle14313" />
    <circle
       x="1048"
       y="1312"
       cx="1048"
       cy="1312"
       r="5"
       fill="#faa400"
       id="circle14315" />
  </g>
  <g
     class="scheme-objects-view__station"
     id="g14323">
    <circle
       x="973"
       y="1387"
       cx="973"
       cy="1387"
       r="7"
       fill="#ffffff"
       id="circle14319" />
    <circle
       x="973"
       y="1387"
       cx="973"
       cy="1387"
       r="5"
       fill="#faa400"
       id="circle14321" />
  </g>
  <g
     class="scheme-objects-view__station"
     id="g14329">
    <circle
       x="815"
       y="1545"
       cx="815"
       cy="1545"
       r="7"
       fill="#ffffff"
       id="circle14325" />
    <circle
       x="815"
       y="1545"
       cx="815"
       cy="1545"
       r="5"
       fill="#faa400"
       id="circle14327" />
  </g>
  <g
     class="scheme-objects-view__station"
     id="g14335">
    <circle
       x="645"
       y="1485"
       cx="645"
       cy="1485"
       r="7"
       fill="#ffffff"
       id="circle14331" />
    <circle
       x="645"
       y="1485"
       cx="645"
       cy="1485"
       r="5"
       fill="#faa400"
       id="circle14333" />
  </g>
  <g
     class="scheme-objects-view__station"
     id="g14341">
    <circle
       x="550"
       y="1390"
       cx="550"
       cy="1390"
       r="7"
       fill="#ffffff"
       id="circle14337" />
    <circle
       x="550"
       y="1390"
       cx="550"
       cy="1390"
       r="5"
       fill="#faa400"
       id="circle14339" />
  </g>
  <g
     class="scheme-objects-view__station"
     id="g14347">
    <circle
       x="500"
       y="1340"
       cx="500"
       cy="1340"
       r="8"
       fill="#ffffff"
       id="circle14343" />
    <circle
       x="500"
       y="1340"
       cx="500"
       cy="1340"
       r="5"
       fill="#faa400"
       id="circle14345" />
  </g>
  <g
     class="scheme-objects-view__station"
     id="g14353">
    <circle
       x="450"
       y="1290"
       cx="450"
       cy="1290"
       r="8"
       fill="#ffffff"
       id="circle14349" />
    <circle
       x="450"
       y="1290"
       cx="450"
       cy="1290"
       r="5"
       fill="#faa400"
       id="circle14351" />
  </g>
  <g
     class="scheme-objects-view__station"
     id="g14359">
    <circle
       x="420"
       y="1235"
       cx="420"
       cy="1235"
       r="8"
       fill="#ffffff"
       id="circle14355" />
    <circle
       x="420"
       y="1235"
       cx="420"
       cy="1235"
       r="5"
       fill="#faa400"
       id="circle14357" />
  </g>
  <g
     class="scheme-objects-view__station"
     id="g14365">
    <circle
       x="420"
       y="1185"
       cx="420"
       cy="1185"
       r="8"
       fill="#ffffff"
       id="circle14361" />
    <circle
       x="420"
       y="1185"
       cx="420"
       cy="1185"
       r="5"
       fill="#faa400"
       id="circle14363" />
  </g>
  <g
     class="scheme-objects-view__station"
     id="g14371">
    <circle
       x="420"
       y="1135"
       cx="420"
       cy="1135"
       r="8"
       fill="#ffffff"
       id="circle14367" />
    <circle
       x="420"
       y="1135"
       cx="420"
       cy="1135"
       r="5"
       fill="#faa400"
       id="circle14369" />
  </g>
  <g
     class="scheme-objects-view__station"
     id="g14377">
    <circle
       x="420"
       y="1085"
       cx="420"
       cy="1085"
       r="8"
       fill="#ffffff"
       id="circle14373" />
    <circle
       x="420"
       y="1085"
       cx="420"
       cy="1085"
       r="5"
       fill="#faa400"
       id="circle14375" />
  </g>
</svg>
