<?xml version="1.0" encoding="UTF-8" standalone="no"?>
<svg
   version="1.0"
   width="38.000000pt"
   height="38.000000pt"
   viewBox="0 0 172.000000 172.000000"
   preserveAspectRatio="xMidYMid meet"
   id="svg12"
   sodipodi:docname="logo.svg"
   inkscape:version="1.1.2 (b8e25be833, 2022-02-05)"
   xmlns:inkscape="http://www.inkscape.org/namespaces/inkscape"
   xmlns:sodipodi="http://sodipodi.sourceforge.net/DTD/sodipodi-0.dtd"
   xmlns="http://www.w3.org/2000/svg"
   xmlns:svg="http://www.w3.org/2000/svg">
  <defs
     id="defs16" />
  <sodipodi:namedview
     id="namedview14"
     pagecolor="#ffffff"
     bordercolor="#666666"
     borderopacity="1.0"
     inkscape:pageshadow="2"
     inkscape:pageopacity="0.0"
     inkscape:pagecheckerboard="0"
     inkscape:document-units="pt"
     showgrid="false"
     inkscape:lockguides="true"
     inkscape:zoom="11.597482"
     inkscape:cx="22.763563"
     inkscape:cy="28.885581"
     inkscape:window-width="1920"
     inkscape:window-height="1017"
     inkscape:window-x="-8"
     inkscape:window-y="-8"
     inkscape:window-maximized="1"
     inkscape:current-layer="svg12" />
  <metadata
     id="metadata2">
Created by Docfx
</metadata>
  <g
     id="g88879"
     transform="matrix(3.5815565,0,0,3.5815565,29.131029,25.749791)"
     style="display:inline">
    <path
       style="fill:#35495e;fill-opacity:1;stroke:none;stroke-width:0.264583px;stroke-linecap:butt;stroke-linejoin:miter;stroke-opacity:1"
       d="M 8.6872664,30.168506 25.556357,30.136917 1.105652,17.027042 l 0.03159,7.676384 z"
       id="path891" />
    <path
       style="display:inline;fill:#547580;fill-opacity:1;stroke:none;stroke-width:0.264583px;stroke-linecap:butt;stroke-linejoin:miter;stroke-opacity:1"
       d="M 13.480708,30.155687 1.1174983,22.646124 1.089857,18.417004 22.56092,27.38583 c 0,0 0,0 3.161286,2.071899 0.102235,0.194467 0.192774,0.391845 -0.165849,0.679188 -12.075649,0.01877 -12.075649,0.01877 -12.075649,0.01877 z"
       id="path7940"
       sodipodi:nodetypes="ccccccc" />
    <path
       style="fill:#f29c1f;fill-opacity:1;stroke:none;stroke-width:0.264583px;stroke-linecap:butt;stroke-linejoin:miter;stroke-opacity:1"
       d="M 12.173962,26.698952 1.6624269,20.723079 C 1.0845284,20.410207 1.1214471,19.917532 1.1214471,19.917532 l -0.035284,-5.89793 c 0.058906,-0.704175 0.5612308,-0.882333 0.5612308,-0.882333 L 13.496853,8.9952694 13.50475,27.27012 c 0,0 -0.649817,-0.0938 -1.330788,-0.571168 z"
       id="path39899"
       sodipodi:nodetypes="cccccccc" />
    <path
       style="display:inline;fill:#e57e25;fill-opacity:1;stroke:none;stroke-width:0.264583px;stroke-linecap:butt;stroke-linejoin:miter;stroke-opacity:1"
       d="m 15.747968,27.486345 6.611914,0.01116 c 1.460483,0.01651 3.999124,-0.566837 3.998421,-2.211418 l 0.0036,-13.360854 C 26.324605,10.510529 25.818401,9.9505662 25.366816,9.9508545 L 13.030898,9.7455193 c -0.860625,0.00361 -1.406583,0.9978107 -1.72252,2.7467387 V 24.89518 c -0.01508,1.507949 1.118882,2.137967 2.543855,2.461796 l 1.895727,0.129355"
       id="path17427"
       sodipodi:nodetypes="cccccccccc" />
    <path
       style="fill:#5e5f62;fill-opacity:1;stroke:none;stroke-width:0.264583px;stroke-linecap:butt;stroke-linejoin:miter;stroke-opacity:1"
       d="m 22.359882,27.497518 0.01117,-2.401286 c 0,0 0.01882,-0.66889 -0.591945,-0.670127 -5.383384,-0.0109 3.5e-5,-0.01174 -5.383349,-0.02234 -0.616206,-0.0012 -0.63662,0.603113 -0.63662,0.603113 l -0.01117,2.479468 z"
       id="path14590"
       sodipodi:nodetypes="ccssccc" />
    <path
       style="display:inline;fill:#e6e7e8;fill-opacity:1;stroke:none;stroke-width:0.264583px;stroke-linecap:butt;stroke-linejoin:miter;stroke-opacity:1"
       d="m 14.010191,20.312408 c 1.479652,-0.236279 1.391268,0.261808 1.500528,0.489646 0.448868,0.936015 -0.03949,1.168832 -0.03949,1.168832 -0.382823,0.385103 -1.004645,0.09264 -1.33468,-0.0079 -1.080583,-0.329186 -1.129344,-0.868726 -1.129344,-0.868726 -0.0117,-0.180447 -0.248754,-0.581967 1.002986,-0.781852 z"
       id="path21336"
       sodipodi:nodetypes="ssssss" />
    <path
       style="display:inline;fill:#e6e7e8;fill-opacity:1;stroke:none;stroke-width:0.264583px;stroke-linecap:butt;stroke-linejoin:miter;stroke-opacity:1"
       d="m 23.64382,20.299487 c -1.479652,-0.236279 -1.391268,0.261808 -1.500528,0.489646 -0.448868,0.936015 0.03949,1.168832 0.03949,1.168832 0.382823,0.385103 1.004645,0.09264 1.33468,-0.0079 1.080583,-0.329186 1.129344,-0.868726 1.129344,-0.868726 0.0117,-0.180447 0.248754,-0.581967 -1.002986,-0.781852 z"
       id="path24665"
       sodipodi:nodetypes="ssssss" />
    <path
       style="fill:#35495e;fill-opacity:1;stroke:none;stroke-width:0.264583px;stroke-linecap:butt;stroke-linejoin:miter;stroke-opacity:1"
       d="m 13.212658,11.939418 -0.07818,-0.86558 c 0,0 0,0 -0.103578,-1.3283188 0.556375,-1.3842632 1.868244,-1.3745241 1.868244,-1.3745241 h 8.00801 c 0,0 1.525349,0.080251 1.675316,1.4016807 -0.122858,2.1890832 -0.122856,2.1890832 -0.122856,2.1890832 z"
       id="path29206"
       sodipodi:nodetypes="cccccccc" />
    <path
       style="fill:#9fc9d3;fill-opacity:1;stroke:none;stroke-width:0.264583px;stroke-linecap:butt;stroke-linejoin:miter;stroke-opacity:1"
       d="m 13.212658,11.939418 c 0,0 0.264677,2.264706 0.837658,3.987251 0.16648,0.500486 0.221525,0.727012 0.513763,1.496616 0.345916,0.604909 0.762103,0.713579 0.994021,0.714802 l 6.355032,0.03351 c 0.833914,0.0044 1.217396,-0.804152 1.217396,-0.804152 0,0 0.381917,-0.732665 0.837658,-2.769855 0.279621,-1.249922 0.491426,-2.635831 0.491426,-2.635831 z"
       id="path25316"
       sodipodi:nodetypes="cscsssscc" />
    <path
       style="fill:#3f5c6c;fill-opacity:1;stroke:none;stroke-width:0.264583px;stroke-linecap:butt;stroke-linejoin:miter;stroke-opacity:1"
       d="m 15.569269,10.582412 c 0,0 -0.280693,-0.08676 -0.284804,-0.413245 -0.0044,-0.3475184 0.31831,-0.4467506 0.31831,-0.4467506 h 6.707704 l -0.05528,0.8760486 z"
       id="path33236"
       sodipodi:nodetypes="cscccc" />
    <path
       style="fill:#e57e25;fill-opacity:1;stroke:none;stroke-width:0.264583px;stroke-linecap:butt;stroke-linejoin:miter;stroke-opacity:1"
       d="M 6.6418099,23.534594 3.4591114,21.741858 c 0,0 -0.1568826,-0.561059 -0.1579502,-0.971394 -0.017542,-6.742486 0,0 -0.017542,-6.742486 -0.00246,-0.944105 0.3430215,-1.583888 0.3462318,-1.569212 l 3.3562163,-1.189475 c 0,0 -0.5627061,0.765631 -0.5640231,1.775835 -0.011168,8.566449 -0.011168,8.566449 -0.011168,8.566449 -0.00167,1.279845 0.2309336,1.923019 0.2309337,1.923019 z"
       id="path46032"
       sodipodi:nodetypes="ccssccssc" />
    <path
       style="display:inline;fill:#9fc9d3;fill-opacity:1;stroke:none;stroke-width:0.264583px;stroke-linecap:butt;stroke-linejoin:miter;stroke-opacity:1"
       d="M 8.4826826,20.215478 C 1.0872721,18.169433 1.0872721,18.169433 1.0872721,18.169433 v -2.202585 c 0,0 0,0 7.4077226,-1.683798 0.3579299,-0.08136 0.5320334,0.26894 0.5320334,0.26894 l 0.00292,5.296948 c 0,0 -0.1046124,0.489006 -0.5472655,0.36654 z"
       id="path51815"
       sodipodi:nodetypes="sccsccs" />
    <path
       style="fill:#67b9cc;fill-opacity:1;stroke:none;stroke-width:0.264583px;stroke-linecap:butt;stroke-linejoin:miter;stroke-opacity:1"
       d="m 3.2824869,18.785416 v -3.315559 l 3.1253906,-0.711068 -0.00827,4.878255 z"
       id="path62955" />
    <g
       id="g88435"
       inkscape:label="Star"
       transform="matrix(1.209994,-0.19497815,0.19896436,1.1857522,-15.3803,-0.45907207)"
       style="display:inline">
      <path
         style="fill:#00d1e9;fill-opacity:1;stroke:none;stroke-width:0.264583px;stroke-linecap:butt;stroke-linejoin:miter;stroke-opacity:1"
         d="m 25.315435,12.207535 -2.11644,-1.590253 1.028987,-5.9634515 0.736662,2.5256972 2.50231,0.8418988 -2.163212,1.5434815 z"
         id="path88431" />
      <path
         style="fill:#1dc3ed;fill-opacity:1;stroke:none;stroke-width:0.264583px;stroke-linecap:butt;stroke-linejoin:miter;stroke-opacity:1"
         d="m 23.198995,10.617282 -2.502311,0.80682 0.865285,-2.5023111 -1.555175,-2.1749059 2.630935,0.070158 1.590253,-2.1632127 z"
         id="path88433" />
    </g>
    <g
       id="g81710"
       inkscape:label="Star"
       transform="rotate(-18.508467,14.861492,62.1175)"
       style="display:inline">
      <path
         style="fill:#00d1e9;fill-opacity:1;stroke:none;stroke-width:0.264583px;stroke-linecap:butt;stroke-linejoin:miter;stroke-opacity:1"
         d="m 25.315435,12.207535 -2.11644,-1.590253 1.028987,-5.9634515 0.736662,2.5256972 2.50231,0.8418988 -2.163212,1.5434815 z"
         id="path73723" />
      <path
         style="fill:#1dc3ed;fill-opacity:1;stroke:none;stroke-width:0.264583px;stroke-linecap:butt;stroke-linejoin:miter;stroke-opacity:1"
         d="m 23.198995,10.617282 -2.502311,0.80682 0.865285,-2.5023111 -1.555175,-2.1749059 2.630935,0.070158 1.590253,-2.1632127 z"
         id="path75821" />
    </g>
    <g
       id="g88623"
       inkscape:label="Star"
       transform="rotate(-0.36768878,19.823744,-8.9613519)"
       style="display:inline">
      <path
         style="fill:#00d1e9;fill-opacity:1;stroke:none;stroke-width:0.264583px;stroke-linecap:butt;stroke-linejoin:miter;stroke-opacity:1"
         d="m 25.315435,12.207535 -2.11644,-1.590253 1.028987,-5.9634515 0.736662,2.5256972 2.50231,0.8418988 -2.163212,1.5434815 z"
         id="path88619" />
      <path
         style="fill:#1dc3ed;fill-opacity:1;stroke:none;stroke-width:0.264583px;stroke-linecap:butt;stroke-linejoin:miter;stroke-opacity:1"
         d="m 23.198995,10.617282 -2.502311,0.80682 0.865285,-2.5023111 -1.555175,-2.1749059 2.630935,0.070158 1.590253,-2.1632127 z"
         id="path88621" />
    </g>
  </g>
</svg>
